<?xml version="1.0" encoding="UTF-8"?>
<svg id="Layer_2" data-name="Layer 2" xmlns="http://www.w3.org/2000/svg" viewBox="0 0 3959.19 903.53">
  <defs>
    <style>
      .cls-1 {
        fill: #fff;
      }

      .cls-2 {
        fill: #009d08;
      }
    </style>
  </defs>
  <g id="Layer_1-2" data-name="Layer 1">
    <g>
      <rect class="cls-2" width="3959.19" height="903.53"/>
      <g>
        <path class="cls-1" d="m599.45,478.91c-2.99,24.87-9.76,44.63-20.3,59.27-10.08,14.01-23.97,24.71-41.68,32.11-17.71,7.4-38.22,11.1-61.52,11.1-21.72,0-42.5-3.23-62.34-9.68-31.64-10.39-56.36-29.16-74.15-56.32-17.79-27.16-26.68-59.54-26.68-97.17,0-28.81,5.2-55.38,15.59-79.7,10.39-24.32,24.87-43.88,43.44-58.68,14.33-11.33,31.45-20.34,51.37-27.04,19.91-6.69,39.86-10.03,59.86-10.03s39.2,3.62,60.45,10.86l19.36,6.37s.05.02.07.03c3.75,1.4,7.04,2.1,9.85,2.1.69,0,1.35-.05,2-.15,3.04-.48,5.6-2.08,7.68-4.81,1.1-1.57,2.44-4.17,4.02-7.79h5.66l.43,15.9.05,1.94v98.3l-29.02-32.01-29.01,32.01v-100.07c-5.42-3.89-10.95-6.97-16.59-9.22-9.45-3.78-20.08-5.67-31.88-5.67-17.8,0-33.22,3.86-46.29,11.57-11.49,6.77-22.19,16.49-32.11,29.16-9.92,12.68-18.03,27.12-24.32,43.33-8.98,22.83-13.46,48.81-13.46,77.93,0,24.72,3.07,46.99,9.21,66.83,6.13,19.83,15.11,36.44,26.92,49.82,21.72,24.88,50.53,37.31,86.42,37.31,17.95,0,34.08-3.1,48.41-9.32,14.32-6.22,25.42-15,33.3-26.33,9.12-13.07,15.74-30.7,19.83-52.9l5.43.95Z"/>
        <g>
          <path class="cls-1" d="m1035.9,250.35l2.83,105.55h-5.43c-1.73-4.56-3.07-8.03-4.01-10.39-5.51-15.11-10-26.37-13.46-33.77-6.14-13.22-15.04-25.34-26.68-36.37-8.82-8.34-17.95-14.4-27.39-18.18-9.45-3.78-20.07-5.67-31.88-5.67-17.79,0-33.22,3.86-46.28,11.57-11.49,6.77-22.2,16.49-32.11,29.16-9.92,12.67-18.03,27.12-24.32,43.33-8.97,22.83-13.46,48.8-13.46,77.93,0,24.72,3.07,46.99,9.21,66.83,6.14,19.83,15.11,36.45,26.92,49.82,21.73,24.88,50.53,37.31,86.43,37.31,17.95,0,34.08-3.11,48.41-9.33,14.32-6.22,25.42-14.99,33.3-26.33,9.13-13.07,15.74-30.7,19.84-52.89l5.43.94c-2.99,24.88-9.76,44.63-20.31,59.27-10.08,14.01-23.97,24.72-41.68,32.12-17.71,7.4-38.22,11.1-61.51,11.1-21.72,0-42.5-3.23-62.34-9.68-31.64-10.39-56.36-29.16-74.15-56.32-17.79-27.16-26.68-59.54-26.68-97.17,0-28.81,5.19-55.37,15.58-79.7s24.87-43.88,43.45-58.68c14.32-11.33,31.44-20.34,51.36-27.04,19.91-6.69,39.87-10.04,59.86-10.04s39.2,3.62,60.45,10.86l19.36,6.38c3.78,1.42,7.08,2.12,9.92,2.12,3.93,0,7.16-1.65,9.68-4.96,1.1-1.57,2.44-4.17,4.01-7.79h5.67Z"/>
          <path class="cls-1" d="m1072.03,474.68c0-25.5,9.45-48.25,28.34-68.24,22.98-24.24,50.45-36.37,82.41-36.37s59.35,12.12,82.18,36.37c18.89,20.15,28.34,42.98,28.34,68.48s-8.97,47.62-26.92,67.3c-22.04,24.24-49.91,36.36-83.59,36.36s-61.63-12.12-83.83-36.36c-8.66-9.45-15.31-19.99-19.95-31.64-4.65-11.65-6.97-23.61-6.97-35.89Zm42.98-2.71c0,27.36,6.14,50.55,18.42,69.58,13.85,21.23,30.78,31.84,50.77,31.84,8.5,0,16.77-2.36,24.79-7.07s14.95-11.32,20.78-19.81c6.14-8.8,11.1-19.85,14.88-33.14s5.67-26.14,5.67-38.56-2.01-25.91-6.02-39.03c-4.01-13.13-9.41-24.41-16.18-33.85-12.91-17.77-28.73-26.65-47.46-26.65s-33.14,9.36-46.05,28.07c-13.07,18.71-19.6,41.59-19.6,68.63Z"/>
          <path class="cls-1" d="m1381.59,370.08c2.22,9.18,3.33,17.73,3.33,25.64v3.8c19.52-19.62,42.74-29.44,69.66-29.44,20.15,0,36.37,4.72,48.64,14.15,12.12,9.28,18.18,22.49,18.18,39.63v100c0,10.69.63,18.51,1.89,23.47,1.26,4.96,3.7,9.08,7.32,12.38,4.41,4.25,12.52,7.47,24.32,9.67v4.96h-104.37v-4.96c9.45-1.25,16.21-3.03,20.31-5.31,4.09-2.28,7.4-6.17,9.92-11.67,1.73-3.62,2.95-9.08,3.66-16.39.71-7.31,1.06-17.81,1.06-31.49v-50c0-17.14-.59-29.72-1.77-37.73-1.18-8.02-3.42-14.46-6.71-19.34-3.61-5.5-8.8-9.78-15.55-12.85s-14.21-4.6-22.38-4.6c-8.8,0-17.01,1.73-24.62,5.19-7.62,3.46-13.63,8.18-18.02,14.15-4.72,6.29-7.82,13.4-9.31,21.34s-2.24,21.11-2.24,39.5v46.22l.24,17.45c0,10.69.63,18.52,1.89,23.47,1.26,4.95,3.7,9.08,7.32,12.38,4.41,4.25,12.52,7.47,24.32,9.67v4.96h-104.37v-4.96c9.45-1.25,16.21-3.01,20.31-5.28,4.09-2.27,7.4-6.15,9.92-11.63,1.73-3.6,2.95-9.04,3.66-16.33.71-7.28,1.06-17.82,1.06-31.6v-58.03c0-16.13-.4-27.45-1.18-33.95-.79-6.5-2.52-11.78-5.2-15.86-2.68-4.38-5.9-7.56-9.68-9.52-3.78-1.96-9.21-3.17-16.29-3.64v-4.96l64.68-8.5Z"/>
          <path class="cls-1" d="m1627.19,373.62h59.98v8.97h-59.98v137.43c0,16.53,2.82,28.34,8.48,35.42,2.98,3.94,6.9,7.01,11.77,9.21,4.86,2.21,10.12,3.31,15.77,3.31,7.06,0,12.95-1.45,17.65-4.37,4.71-2.91,9.88-8.22,15.53-15.94l3.53,3.07c-5.2,9.45-12.48,16.45-21.84,21.02-9.37,4.56-21.06,6.85-35.07,6.85-18.58,0-32.11-3.62-40.62-10.86-4.57-3.78-7.56-8.3-8.97-13.58-1.42-5.27-2.12-14.76-2.12-28.46v-143.1h-25.27v-3.78c10.23-3.31,19.68-9.68,28.36-19.13,5.22-5.82,9.42-11.61,12.59-17.36,3.17-5.75,6.18-13.18,9.04-22.32l2.38-7.79h8.8v61.4Z"/>
          <path class="cls-1" d="m1741.48,445.88c-.63,7.71-.94,13.3-.94,16.77,0,13.7,2,27.08,6,40.14,4,13.07,9.45,23.93,16.36,32.59,7.06,8.82,15.81,15.74,26.24,20.78,10.43,5.04,21.38,7.56,32.83,7.56,8.47,0,16.51-1.42,24.12-4.25,7.61-2.83,13.92-6.77,18.95-11.81,5.65-5.51,10.51-14.32,14.59-26.45l4.96,1.65c-4.1,18.42-12.87,32.31-26.33,41.68-13.46,9.37-31.37,14.05-53.72,14.05-19.36,0-35.97-3.07-49.83-9.21-13.85-6.14-25.58-15.58-35.18-28.34-13.38-17.79-20.07-39.67-20.07-65.65,0-35.42,12.67-63.2,38.02-83.36,18.42-14.64,39.43-21.96,63.05-21.96,12.59,0,24.24,2.24,34.95,6.73,10.7,4.49,19.75,10.98,27.16,19.48,11.49,13.22,17.24,29.75,17.24,49.59h-138.38Zm102.96-9.21c-1.1-15.74-4-27.86-8.7-36.37-4.23-7.71-9.87-13.81-16.92-18.3-7.05-4.49-14.57-6.73-22.57-6.73-13.48,0-25.27,5.83-35.38,17.47-10.11,11.65-16.1,26.29-17.98,43.92h101.55Z"/>
          <path class="cls-1" d="m1976.65,370.08c2.22,9.18,3.33,17.73,3.33,25.64v3.8c19.52-19.62,42.74-29.44,69.66-29.44,20.15,0,36.37,4.72,48.64,14.15,12.12,9.28,18.18,22.49,18.18,39.63v100c0,10.69.63,18.51,1.89,23.47,1.26,4.96,3.7,9.08,7.32,12.38,4.41,4.25,12.52,7.47,24.32,9.67v4.96h-104.37v-4.96c9.45-1.25,16.21-3.03,20.31-5.31,4.09-2.28,7.4-6.17,9.92-11.67,1.73-3.62,2.95-9.08,3.66-16.39.71-7.31,1.06-17.81,1.06-31.49v-50c0-17.14-.59-29.72-1.77-37.73-1.18-8.02-3.42-14.46-6.72-19.34-3.61-5.5-8.8-9.78-15.55-12.85s-14.21-4.6-22.38-4.6c-8.8,0-17.01,1.73-24.62,5.19-7.62,3.46-13.63,8.18-18.02,14.15-4.71,6.29-7.82,13.4-9.31,21.34s-2.24,21.11-2.24,39.5v46.22l.24,17.45c0,10.69.63,18.52,1.89,23.47,1.26,4.95,3.7,9.08,7.32,12.38,4.41,4.25,12.51,7.47,24.32,9.67v4.96h-104.37v-4.96c9.45-1.25,16.21-3.01,20.31-5.28,4.09-2.27,7.4-6.15,9.92-11.63,1.73-3.6,2.95-9.04,3.66-16.33.71-7.28,1.06-17.82,1.06-31.6v-58.03c0-16.13-.39-27.45-1.18-33.95-.79-6.5-2.52-11.78-5.2-15.86-2.68-4.38-5.9-7.56-9.68-9.52-3.78-1.96-9.21-3.17-16.29-3.64v-4.96l64.68-8.5Z"/>
          <path class="cls-1" d="m2222.26,373.62h59.98v8.97h-59.98v137.43c0,16.53,2.82,28.34,8.48,35.42,2.98,3.94,6.9,7.01,11.77,9.21,4.86,2.21,10.12,3.31,15.77,3.31,7.06,0,12.95-1.45,17.66-4.37,4.71-2.91,9.88-8.22,15.53-15.94l3.53,3.07c-5.2,9.45-12.48,16.45-21.84,21.02-9.37,4.56-21.06,6.85-35.07,6.85-18.58,0-32.11-3.62-40.62-10.86-4.57-3.78-7.56-8.3-8.97-13.58-1.42-5.27-2.12-14.76-2.12-28.46v-143.1h-25.27v-3.78c10.23-3.31,19.68-9.68,28.36-19.13,5.22-5.82,9.42-11.61,12.59-17.36,3.17-5.75,6.18-13.18,9.04-22.32l2.38-7.79h8.8v61.4Z"/>
          <path class="cls-1" d="m2703.04,250.35l2.83,105.55h-5.43c-1.73-4.56-3.07-8.03-4.01-10.39-5.51-15.11-10-26.37-13.46-33.77-6.14-13.22-15.04-25.34-26.68-36.37-8.82-8.34-17.95-14.4-27.39-18.18s-20.07-5.67-31.88-5.67c-17.79,0-33.22,3.86-46.28,11.57-11.49,6.77-22.2,16.49-32.11,29.16-9.92,12.67-18.03,27.12-24.32,43.33-8.97,22.83-13.46,48.8-13.46,77.93,0,24.72,3.07,46.99,9.21,66.83,6.14,19.83,15.11,36.45,26.92,49.82,21.72,24.88,50.53,37.31,86.43,37.31,17.95,0,34.08-3.11,48.41-9.33,14.32-6.22,25.42-14.99,33.29-26.33,9.13-13.07,15.74-30.7,19.84-52.89l5.43.94c-2.99,24.88-9.76,44.63-20.31,59.27-10.08,14.01-23.97,24.72-41.68,32.12-17.71,7.4-38.22,11.1-61.51,11.1-21.73,0-42.5-3.23-62.34-9.68-31.64-10.39-56.36-29.16-74.15-56.32-17.79-27.16-26.68-59.54-26.68-97.17,0-28.81,5.2-55.37,15.58-79.7,10.39-24.32,24.87-43.88,43.45-58.68,14.32-11.33,31.44-20.34,51.36-27.04,19.91-6.69,39.87-10.04,59.86-10.04s39.2,3.62,60.45,10.86l19.36,6.38c3.78,1.42,7.08,2.12,9.92,2.12,3.93,0,7.16-1.65,9.68-4.96,1.1-1.57,2.44-4.17,4.01-7.79h5.67Z"/>
          <path class="cls-1" d="m2933.27,551.43l4.01,2.36c-5.67,16.53-18.65,24.79-38.96,24.79-11.19,0-20.5-2.76-27.91-8.26-4.89-3.62-9.93-9.92-15.13-18.89-10.57,9.45-18.53,15.67-23.89,18.66-10.25,5.67-22.15,8.5-35.71,8.5-17.34,0-31.1-4.17-41.27-12.51-10.17-8.34-15.25-19.6-15.25-33.77,0-13.07,4.17-24,12.52-32.82,4.72-4.88,10.15-8.77,16.29-11.69,6.14-2.91,15.03-5.86,26.68-8.85,13.7-3.46,23.81-6.38,30.34-8.74,6.53-2.36,12-5.2,16.41-8.5,5.04-3.62,8.5-7.87,10.39-12.75,1.89-4.88,2.83-11.65,2.83-20.31,0-18.42-3.46-31.88-10.39-40.38-3.15-3.93-7.2-7.08-12.16-9.45-4.96-2.36-10.12-3.54-15.47-3.54-6.46,0-12.2,1.65-17.24,4.96-5.04,3.31-8.82,7.87-11.33,13.7l-5.9,13.7c-3.15,7.4-8.82,11.1-17,11.1-5.35,0-9.84-1.77-13.46-5.31-3.62-3.54-5.43-7.99-5.43-13.34,0-8.03,5.67-14.8,17.03-20.31,6.15-2.83,13.76-5.15,22.82-6.97,9.07-1.81,17.94-2.71,26.61-2.71,9.78,0,19.95,1.26,30.51,3.78,10.56,2.52,19.39,5.75,26.49,9.68,10.25,5.83,16.63,13.38,19.16,22.67,1.26,4.72,1.89,12.67,1.89,23.85v87.37c0,14.8.63,24.88,1.89,30.23,2.68,11.18,9.13,16.77,19.36,16.77,4.88,0,8.7-.86,11.45-2.6,2.75-1.73,6.02-5.19,9.8-10.39Zm-78.16-93.04c-8.47,7.08-17.81,13.3-28.01,18.65-11.46,6.14-19.38,10.79-23.78,13.93-4.39,3.15-8.39,6.93-12,11.33-7.38,9.13-11.07,19.76-11.07,31.88,0,10.39,2.86,18.97,8.59,25.74,5.73,6.77,12.99,10.15,21.78,10.15,7.69,0,14.95-2.4,21.77-7.2,6.83-4.8,11.97-11.22,15.42-19.25,4.86-10.54,7.3-25.82,7.3-45.81v-39.43Z"/>
          <path class="cls-1" d="m3108.96,582.36c-1.58-7.86-2.36-16.2-2.36-25.03-11.63,7.56-22.6,12.99-32.89,16.29-10.3,3.31-21.34,4.96-33.13,4.96-23.89,0-44.33-7.16-61.31-21.49-10.85-9.13-19.18-20.58-25-34.36-5.82-13.77-8.72-28.85-8.72-45.22,0-17.32,3.14-33.33,9.43-48.05,6.29-14.72,15.09-26.96,26.41-36.72,17.92-15.11,39.22-22.67,63.9-22.67,11.95,0,22.16,1.73,30.65,5.19,8.49,3.46,18.39,9.76,29.71,18.89v-87.3c0-17.1-2.85-29.41-8.56-36.94-5.7-7.53-15.13-11.3-28.28-11.3v-5.67l72.49-9.21v273.29c0,17.76,2.83,30.42,8.5,37.96,5.67,7.54,15.03,11.32,28.1,11.32v5.9l-68.94,10.15Zm-3.31-110.04c0-21.88-.94-38.29-2.82-49.23-1.88-10.94-5.25-19.87-10.11-26.8-4.24-5.98-9.92-10.78-17.05-14.4-7.14-3.62-14.46-5.43-21.99-5.43-16.78,0-31.29,7.87-43.51,23.61-7.37,9.45-13.13,20.7-17.29,33.77-4.16,13.07-6.23,26.53-6.23,40.38s1.96,26.8,5.88,39.79c3.92,12.99,9.25,24.13,15.99,33.41,11.76,16.06,26.19,24.09,43.28,24.09,8.15,0,15.91-2.04,23.29-6.14,7.37-4.09,13.33-9.76,17.88-17,4.7-7.56,8-16.88,9.88-27.98,1.88-11.1,2.82-27.12,2.82-48.05Z"/>
          <path class="cls-1" d="m3362.34,582.36c-1.58-7.86-2.36-16.2-2.36-25.03-11.63,7.56-22.6,12.99-32.89,16.29-10.3,3.31-21.34,4.96-33.13,4.96-23.89,0-44.33-7.16-61.31-21.49-10.85-9.13-19.18-20.58-25-34.36-5.82-13.77-8.72-28.85-8.72-45.22,0-17.32,3.14-33.33,9.43-48.05,6.29-14.72,15.09-26.96,26.41-36.72,17.92-15.11,39.22-22.67,63.9-22.67,11.95,0,22.16,1.73,30.65,5.19,8.49,3.46,18.39,9.76,29.71,18.89v-87.3c0-17.1-2.85-29.41-8.56-36.94-5.7-7.53-15.13-11.3-28.28-11.3v-5.67l72.49-9.21v273.29c0,17.76,2.83,30.42,8.5,37.96,5.67,7.54,15.03,11.32,28.1,11.32v5.9l-68.94,10.15Zm-3.31-110.04c0-21.88-.94-38.29-2.82-49.23-1.88-10.94-5.25-19.87-10.11-26.8-4.24-5.98-9.92-10.78-17.05-14.4-7.14-3.62-14.46-5.43-21.99-5.43-16.78,0-31.29,7.87-43.51,23.61-7.37,9.45-13.13,20.7-17.29,33.77-4.16,13.07-6.23,26.53-6.23,40.38s1.96,26.8,5.88,39.79c3.92,12.99,9.25,24.13,15.99,33.41,11.76,16.06,26.19,24.09,43.28,24.09,8.15,0,15.91-2.04,23.29-6.14,7.37-4.09,13.33-9.76,17.88-17,4.7-7.56,8-16.88,9.88-27.98,1.88-11.1,2.82-27.12,2.82-48.05Z"/>
          <path class="cls-1" d="m3437.19,373.62h91.62v5.19c-6.46.95-11.1,2.2-13.93,3.77-6.14,3.46-9.21,8.8-9.21,16.04,0,6.29,3.21,17.53,9.63,33.72l39.48,101.15,34.48-85.12c8.5-21.22,12.75-36.23,12.75-45.03,0-7.07-1.97-12.69-5.9-16.86-3.94-4.17-9.68-6.72-17.24-7.66v-5.19h67.54v5.19c-6.77,1.89-11.77,3.86-15,5.9-3.23,2.05-6.34,5.28-9.33,9.68-4.57,6.93-11.81,22.43-21.72,46.52l-68.48,166.24c-8.19,19.84-14.8,32.74-19.83,38.73-8.5,9.92-19.29,14.88-32.35,14.88-8.35,0-15.08-1.62-20.19-4.84-5.12-3.23-7.67-7.44-7.67-12.63,0-4.1,1.49-7.36,4.47-9.8,2.98-2.44,6.91-3.66,11.77-3.66,4.08,0,8.79,1.1,14.13,3.31,5.18,2.04,8.52,3.31,10.01,3.78,1.49.47,3.26.71,5.3.71,9.73,0,17.66-7.35,23.78-22.05l7.3-18.02c3.14-7.59,4.71-13.43,4.71-17.54,0-5.81-2.98-15.96-8.94-30.42l-48.94-117.7-7.06-16.98c-4.25-10.07-7.56-17.22-9.92-21.47-2.36-4.24-4.72-7.31-7.08-9.2-3.94-2.98-8.66-4.79-14.17-5.42v-5.19Z"/>
        </g>
      </g>
    </g>
  </g>
</svg>