<?xml version="1.0" encoding="UTF-8"?>
<svg id="Layer_2" data-name="Layer 2" xmlns="http://www.w3.org/2000/svg" viewBox="0 0 1080 1038.11">
  <defs>
    <style>
      .cls-1 {
        fill: #fff;
      }

      .cls-2 {
        fill: #009d08;
      }
    </style>
  </defs>
  <g id="Layer_1-2" data-name="Layer 1">
    <g>
      <rect class="cls-2" width="1080" height="1038.11"/>
      <path class="cls-1" d="m838.57,658.26c-6.23,51.81-20.33,92.97-42.29,123.46-21,29.18-49.93,51.47-86.82,66.89-36.89,15.41-79.61,23.12-128.15,23.12-45.24,0-88.53-6.73-129.86-20.16-65.91-21.64-117.4-60.74-154.46-117.32-37.06-56.58-55.58-124.02-55.58-202.41,0-60.01,10.83-115.36,32.47-166.02,21.64-50.66,51.81-91.4,90.49-122.23,29.85-23.6,65.51-42.37,107.01-56.33,41.47-13.94,83.03-20.89,124.69-20.89s81.66,7.54,125.92,22.62l40.33,13.27s.1.04.15.06c7.81,2.92,14.66,4.37,20.52,4.37,1.44,0,2.81-.1,4.17-.31,6.33-1,11.67-4.33,16-10.02,2.29-3.27,5.08-8.69,8.37-16.23h11.79l.9,33.12.1,4.04v204.76l-60.45-66.68-60.43,66.68v-208.45c-11.29-8.1-22.81-14.52-34.56-19.21-19.68-7.87-41.83-11.81-66.41-11.81-37.08,0-69.2,8.04-96.42,24.1-23.93,14.1-46.22,34.35-66.89,60.74-20.66,26.41-37.56,56.49-50.66,90.26-18.71,47.56-28.04,101.67-28.04,162.33,0,51.49,6.39,97.88,19.18,139.21,12.77,41.31,31.47,75.91,56.08,103.78,45.24,51.83,105.26,77.72,180.02,77.72,37.39,0,70.99-6.46,100.84-19.41,29.83-12.96,52.95-31.25,69.37-54.85,19-27.23,32.79-63.95,41.31-110.19l11.31,1.98Z"/>
    </g>
  </g>
</svg>